# xmcd
#
# Track frame offsets:
#	150
#	10716
#	26570
#	42016
#
# Disc length: 799 seconds
#
# Revision: 2
# Processed by: cddbd v1.5.2PL0 Copyright (c) Steve Scherf et al.
# Submitted via: audiograbber 1.83.01
#
DISCID=20031d04
DTITLE=Camaros - Jesus EP
DYEAR=1900
DGENRE=
TTITLE0=You Gotta Love That Jesus
TTITLE1=Cheesecake
TTITLE2=Four Roses
TTITLE3=Ride That Twang
EXTD=
EXTT0=
EXTT1=
EXTT2=
EXTT3=
PLAYORDER=
